<svg width="50" height="52" viewBox="0 0 140 142" fill="none" xmlns="http://www.w3.org/2000/svg">
<path d="M35.3518 34.6482C54.4875 15.5125 85.5125 15.5125 104.648 34.6482V34.6482C123.784 53.7839 123.784 84.809 104.648 103.945L70 138.593L35.3518 103.945C16.2161 84.809 16.2161 53.7839 35.3518 34.6482V34.6482Z" fill="#31A05F"/>
<circle cx="70" cy="69" r="33" fill="white"/>
<path d="M83.9257 69.4863C83.7452 69.4863 83.56 69.512 83.3751 69.5631L82.33 69.8509L80.9927 66.5937C80.3772 65.0948 78.558 63.8755 76.9374 63.8755H63.0408C61.4201 63.8755 59.6009 65.0948 58.9856 66.5939L57.6504 69.8456L56.625 69.5631C56.4401 69.5122 56.2549 69.4863 56.0744 69.4863C55.0858 69.4863 54.3682 70.2415 54.3682 71.2819V71.3201C54.3682 72.3936 55.1406 73.2889 56.1588 73.4825C55.6029 74.8846 55.156 77.1757 55.156 78.6507V85.4152C55.156 86.6298 56.1442 87.6178 57.359 87.6178H58.6284C59.843 87.6178 60.8314 86.6298 60.8314 85.4152V84.0029H79.1468V85.4152C79.1468 86.6298 80.135 87.6178 81.3499 87.6178H82.6192C83.8341 87.6178 84.8223 86.6298 84.8223 85.4152V78.6507C84.8223 77.1767 84.3759 74.8878 83.8205 73.4857C84.8487 73.3002 85.632 72.4008 85.632 71.3201V71.2819C85.632 70.2415 84.9143 69.4863 83.9257 69.4863ZM59.0669 72.1069L61.1913 66.9331C61.5593 66.0365 62.6536 65.303 63.623 65.303H76.3553C77.3246 65.303 78.4189 66.0365 78.7871 66.9331L80.9116 72.1069C81.2798 73.0034 80.7879 73.737 79.8185 73.737H60.1601C59.1908 73.737 58.6989 73.0034 59.0669 72.1069ZM64.3919 79.875C64.3919 80.3596 63.9954 80.7561 63.5107 80.7561H59.2789C58.7942 80.7561 58.3977 80.3596 58.3977 79.875V78.0747C58.3977 77.5901 58.7942 77.1937 59.2789 77.1937H63.5107C63.9954 77.1937 64.3919 77.5901 64.3919 78.0747V79.875ZM81.5365 79.875C81.5365 80.3596 81.14 80.7561 80.6553 80.7561H76.4235C75.9388 80.7561 75.5423 80.3596 75.5423 79.875V78.0747C75.5423 77.5901 75.9388 77.1937 76.4235 77.1937H80.6553C81.14 77.1937 81.5365 77.5901 81.5365 78.0747V79.875Z" fill="#31A05F"/>
<path d="M89.9157 49.6177H50.0843C48.3837 49.6177 47 51.0011 47 52.7013V86.0857C47 86.8156 47.5918 87.4073 48.3218 87.4073C49.0518 87.4073 49.6437 86.8156 49.6437 86.0857V52.7013C49.6437 52.4626 49.8455 52.2608 50.0843 52.2608H89.9157C90.1545 52.2608 90.3563 52.4626 90.3563 52.7013V86.0857C90.3563 86.8156 90.9482 87.4073 91.6782 87.4073C92.4082 87.4073 93 86.8156 93 86.0857V52.7013C93 51.0009 91.6165 49.6177 89.9157 49.6177Z" fill="#31A05F"/>
<path d="M52.5519 53.1631C52.0653 53.1631 51.6707 53.5576 51.6707 54.0441V54.6609C51.6707 55.1474 52.0653 55.5419 52.5519 55.5419C53.0385 55.5419 53.4331 55.1474 53.4331 54.6609V54.0441C53.4331 53.5576 53.0385 53.1631 52.5519 53.1631Z" fill="#31A05F"/>
<path d="M52.5519 60.3496C52.0653 60.3496 51.6707 60.7441 51.6707 61.2307V62.3522C51.6707 62.8387 52.0653 63.2333 52.5519 63.2333C53.0385 63.2333 53.4331 62.8387 53.4331 62.3522V61.2307C53.4331 60.7441 53.0385 60.3496 52.5519 60.3496Z" fill="#31A05F"/>
<path d="M52.5519 56.5034C52.0653 56.5034 51.6707 56.8979 51.6707 57.3845V58.506C51.6707 58.9925 52.0653 59.3871 52.5519 59.3871C53.0385 59.3871 53.4331 58.9925 53.4331 58.506V57.3845C53.4331 56.8979 53.0385 56.5034 52.5519 56.5034Z" fill="#31A05F"/>
<path d="M52.5519 64.1943C52.0653 64.1943 51.6707 64.5889 51.6707 65.0754V66.1969C51.6707 66.6835 52.0653 67.078 52.5519 67.078C53.0385 67.078 53.4331 66.6835 53.4331 66.1969V65.0754C53.4331 64.5889 53.0385 64.1943 52.5519 64.1943Z" fill="#31A05F"/>
<path d="M52.5519 68.0396C52.0653 68.0396 51.6707 68.4341 51.6707 68.9206V69.5373C51.6707 70.0238 52.0653 70.4184 52.5519 70.4184C53.0385 70.4184 53.4331 70.0238 53.4331 69.5373V68.9206C53.4331 68.4341 53.0385 68.0396 52.5519 68.0396Z" fill="#31A05F"/>
<path d="M59.5306 55.5419C60.0173 55.5419 60.4119 55.1474 60.4119 54.6609V54.0441C60.4119 53.5576 60.0173 53.1631 59.5306 53.1631C59.044 53.1631 58.6494 53.5576 58.6494 54.0441V54.6609C58.6494 55.1474 59.044 55.5419 59.5306 55.5419Z" fill="#31A05F"/>
<path d="M58.6494 59.3983C58.6494 59.8848 59.044 60.2793 59.5306 60.2793C60.0173 60.2793 60.4119 59.8848 60.4119 59.3983V58.0163C60.4119 57.5298 60.0173 57.1353 59.5306 57.1353C59.044 57.1353 58.6494 57.5298 58.6494 58.0163V59.3983Z" fill="#31A05F"/>
<path d="M58.6494 63.3718C58.6494 63.8583 59.044 64.2528 59.5306 64.2528C60.0173 64.2528 60.4119 63.8583 60.4119 63.3718V62.7551C60.4119 62.2686 60.0173 61.874 59.5306 61.874C59.044 61.874 58.6494 62.2686 58.6494 62.7551V63.3718Z" fill="#31A05F"/>
<path d="M80.4691 55.5419C80.9557 55.5419 81.3503 55.1474 81.3503 54.6609V54.0441C81.3503 53.5576 80.9557 53.1631 80.4691 53.1631C79.9825 53.1631 79.5879 53.5576 79.5879 54.0441V54.6609C79.5879 55.1474 79.9825 55.5419 80.4691 55.5419Z" fill="#31A05F"/>
<path d="M79.5879 59.3983C79.5879 59.8848 79.9825 60.2793 80.4691 60.2793C80.9557 60.2793 81.3503 59.8848 81.3503 59.3983V58.0163C81.3503 57.5298 80.9557 57.1353 80.4691 57.1353C79.9825 57.1353 79.5879 57.5298 79.5879 58.0163V59.3983Z" fill="#31A05F"/>
<path d="M79.5879 63.3718C79.5879 63.8583 79.9825 64.2528 80.4691 64.2528C80.9557 64.2528 81.3503 63.8583 81.3503 63.3718V62.7551C81.3503 62.2686 80.9557 61.874 80.4691 61.874C79.9825 61.874 79.5879 62.2686 79.5879 62.7551V63.3718Z" fill="#31A05F"/>
<path d="M73.4896 55.5419C73.9762 55.5419 74.3708 55.1474 74.3708 54.6609V54.0441C74.3708 53.5576 73.9762 53.1631 73.4896 53.1631C73.003 53.1631 72.6084 53.5576 72.6084 54.0441V54.6609C72.6084 55.1474 73.003 55.5419 73.4896 55.5419Z" fill="#31A05F"/>
<path d="M72.6084 58.4745C72.6084 58.9611 73.003 59.3556 73.4896 59.3556C73.9762 59.3556 74.3708 58.9611 74.3708 58.4745V57.3625C74.3708 56.876 73.9762 56.4814 73.4896 56.4814C73.003 56.4814 72.6084 56.876 72.6084 57.3625V58.4745Z" fill="#31A05F"/>
<path d="M72.6084 61.7907C72.6084 62.2772 73.003 62.6718 73.4896 62.6718C73.9762 62.6718 74.3708 62.2772 74.3708 61.7907V61.174C74.3708 60.6875 73.9762 60.293 73.4896 60.293C73.003 60.293 72.6084 60.6875 72.6084 61.174V61.7907Z" fill="#31A05F"/>
<path d="M66.5104 55.5419C66.997 55.5419 67.3916 55.1474 67.3916 54.6609V54.0441C67.3916 53.5576 66.997 53.1631 66.5104 53.1631C66.0238 53.1631 65.6292 53.5576 65.6292 54.0441V54.6609C65.6292 55.1474 66.0238 55.5419 66.5104 55.5419Z" fill="#31A05F"/>
<path d="M65.6292 58.4745C65.6292 58.9611 66.0238 59.3556 66.5104 59.3556C66.997 59.3556 67.3916 58.9611 67.3916 58.4745V57.3625C67.3916 56.876 66.997 56.4814 66.5104 56.4814C66.0238 56.4814 65.6292 56.876 65.6292 57.3625V58.4745Z" fill="#31A05F"/>
<path d="M65.6292 61.7907C65.6292 62.2772 66.0238 62.6718 66.5104 62.6718C66.997 62.6718 67.3916 62.2772 67.3916 61.7907V61.174C67.3916 60.6875 66.997 60.293 66.5104 60.293C66.0238 60.293 65.6292 60.6875 65.6292 61.174V61.7907Z" fill="#31A05F"/>
<path d="M87.4486 53.1631C86.962 53.1631 86.5674 53.5576 86.5674 54.0441V54.6609C86.5674 55.1474 86.962 55.5419 87.4486 55.5419C87.9352 55.5419 88.3298 55.1474 88.3298 54.6609V54.0441C88.3298 53.5576 87.9352 53.1631 87.4486 53.1631Z" fill="#31A05F"/>
<path d="M87.4486 64.1943C86.962 64.1943 86.5674 64.5889 86.5674 65.0754V66.1969C86.5674 66.6835 86.962 67.078 87.4486 67.078C87.9352 67.078 88.3298 66.6835 88.3298 66.1969V65.0754C88.3298 64.5889 87.9352 64.1943 87.4486 64.1943Z" fill="#31A05F"/>
<path d="M87.4486 60.3496C86.962 60.3496 86.5674 60.7441 86.5674 61.2307V62.3522C86.5674 62.8387 86.962 63.2333 87.4486 63.2333C87.9352 63.2333 88.3298 62.8387 88.3298 62.3522V61.2307C88.3298 60.7441 87.9352 60.3496 87.4486 60.3496Z" fill="#31A05F"/>
<path d="M87.4486 56.5034C86.962 56.5034 86.5674 56.8979 86.5674 57.3845V58.506C86.5674 58.9925 86.962 59.3871 87.4486 59.3871C87.9352 59.3871 88.3298 58.9925 88.3298 58.506V57.3845C88.3298 56.8979 87.9352 56.5034 87.4486 56.5034Z" fill="#31A05F"/>
<path d="M87.4486 68.0396C86.962 68.0396 86.5674 68.4341 86.5674 68.9206V69.5373C86.5674 70.0238 86.962 70.4184 87.4486 70.4184C87.9352 70.4184 88.3298 70.0238 88.3298 69.5373V68.9206C88.3298 68.4341 87.9352 68.0396 87.4486 68.0396Z" fill="#31A05F"/>
</svg>
