<svg width="50" height="52" viewBox="0 0 140 142" fill="none" xmlns="http://www.w3.org/2000/svg">
<path d="M35.3518 34.6482C54.4875 15.5125 85.5125 15.5125 104.648 34.6482V34.6482C123.784 53.7839 123.784 84.809 104.648 103.945L70 138.593L35.3518 103.945C16.2161 84.809 16.2161 53.7839 35.3518 34.6482V34.6482Z" fill="#31A05F"/>
<circle cx="70" cy="69" r="33" fill="white"/>
<path d="M93.411 61.4306C93.243 61.4306 93.0706 61.4545 92.8982 61.5021L90.9498 62.0388L88.9265 57.1103C88.3534 55.7142 86.6592 54.5783 85.1501 54.5783H66.2158C64.7066 54.5783 63.0124 55.7142 62.4391 57.1103L60.9278 60.7928C60.95 60.5484 60.9625 60.3018 60.9625 60.0532C60.9625 57.1969 59.4206 54.5408 56.9382 53.1209C56.8062 53.0454 56.6533 53.0056 56.4959 53.0056C55.9954 53.0056 55.6178 53.3961 55.6178 53.9114C55.6178 53.9114 55.6023 57.9068 55.6027 59.2384C55.6025 59.378 55.4357 59.5443 55.3662 59.5945L55.3162 59.632C54.5174 60.2965 53.5103 61.045 53.0651 61.2766C53.0372 61.2764 53.01 61.2756 52.9812 61.2756C52.9506 61.2756 52.9217 61.2764 52.8918 61.2766C52.4403 61.0446 51.4169 60.2831 50.6063 59.606L50.5555 59.5677C50.5534 59.5663 50.3592 59.4106 50.3592 59.1106C50.3592 57.7246 50.3452 53.9144 50.3452 53.9144C50.3446 53.3141 49.9146 53 49.4902 53C49.326 53 49.1565 53.0452 49.0117 53.128C46.5371 54.5498 45 57.2032 45 60.053C45 63.3955 47.0662 66.2629 49.9878 67.4497L49.9874 81.0395C49.9874 82.6447 51.2932 83.9504 52.8983 83.9504H53.064C54.6691 83.9504 55.9749 82.6447 55.9749 81.0395L55.9753 67.4548C56.955 67.0585 57.8549 66.4667 58.6249 65.6967C58.8118 65.5097 58.9881 65.3153 59.1537 65.1138L58.3389 67.0986C57.8064 68.3955 57.373 70.5916 57.373 71.9941V81.7848C57.373 82.9161 58.2935 83.8366 59.4248 83.8366H62.1045C63.2357 83.8366 64.1563 82.9163 64.1563 81.7848V79.3398H87.2099V81.7848C87.2099 82.9161 88.1305 83.8366 89.2617 83.8366H91.9411C93.0723 83.8366 93.9929 82.9163 93.9929 81.7848V71.9941C93.9929 70.5918 93.5596 68.3957 93.0271 67.0986L92.7005 66.3031H92.9482C94.0794 66.3031 95 65.3827 95 64.2513V63.1028C95.0002 62.134 94.3319 61.4306 93.411 61.4306ZM61.8903 65.1893L64.9508 57.7346C65.2935 56.8994 66.3127 56.2162 67.2154 56.2162H84.1513C85.0541 56.2162 86.0733 56.8994 86.416 57.7346L89.4765 65.1893C89.8191 66.0244 89.361 66.7076 88.4584 66.7076H62.9084C62.0056 66.7076 61.5477 66.0244 61.8903 65.1893ZM68.7221 74.6182C68.7221 75.0695 68.3528 75.439 67.9015 75.439H62.0876C61.6363 75.439 61.267 75.0697 61.267 74.6182V71.8282C61.267 71.3769 61.6363 71.0074 62.0876 71.0074H67.9015C68.3528 71.0074 68.7221 71.3767 68.7221 71.8282V74.6182ZM90.0444 74.6182C90.0444 75.0695 89.6751 75.439 89.2238 75.439H83.4101C82.9588 75.439 82.5895 75.0697 82.5895 74.6182V71.8282C82.5895 71.3769 82.9588 71.0074 83.4101 71.0074H89.2238C89.6751 71.0074 90.0444 71.3767 90.0444 71.8282V74.6182Z" fill="#31A05F"/>
</svg>
