<svg width="50" height="52" viewBox="0 0 140 142" fill="none" xmlns="http://www.w3.org/2000/svg">
<path d="M35.3518 34.6482C54.4875 15.5125 85.5125 15.5125 104.648 34.6482V34.6482C123.784 53.7839 123.784 84.809 104.648 103.945L70 138.593L35.3518 103.945C16.2161 84.809 16.2161 53.7839 35.3518 34.6482V34.6482Z" fill="#31A05F"/>
<circle cx="70" cy="69" r="33" fill="white"/>
<path d="M59.8553 65.813C55.4723 65.813 51.9067 69.4443 51.9067 73.9076C51.9067 78.3713 55.4725 82.0028 59.8553 82.0028C64.2382 82.0028 67.8038 78.3711 67.8038 73.9076C67.804 69.4443 64.2382 65.813 59.8553 65.813ZM66.7859 73.3918H62.9261C62.8473 72.8959 62.6563 72.439 62.3788 72.0477L65.1029 69.2734C66.0587 70.3942 66.6743 71.8225 66.7859 73.3918ZM60.3542 66.8491C61.894 66.961 63.2957 67.5851 64.397 68.5556L61.6735 71.3293C61.2896 71.0468 60.841 70.8522 60.3542 70.7719V66.8491ZM59.3566 66.8491V70.7719C58.8696 70.8524 58.4209 71.0469 58.0371 71.3297L55.3135 68.5557C56.4146 67.5853 57.8167 66.9611 59.3566 66.8491ZM54.6074 69.2736L57.3319 72.048C57.0545 72.4391 56.8636 72.896 56.7848 73.3918H52.9248C53.0363 71.8227 53.6516 70.3946 54.6074 69.2736ZM52.9236 74.4078H56.7846C56.8635 74.9034 57.0545 75.3601 57.3317 75.7512L54.6002 78.5332C53.6453 77.4098 53.032 75.9789 52.9236 74.4078ZM59.3566 80.9666C57.8128 80.8546 56.4074 80.2274 55.3049 79.2523L58.0373 76.4696C58.4211 76.7519 58.8698 76.9465 59.3566 77.0268V80.9666ZM57.5998 73.8997C57.5998 72.6307 58.6098 71.602 59.8553 71.602C61.1011 71.602 62.1109 72.6307 62.1109 73.8997C62.1109 75.1683 61.1011 76.1966 59.8553 76.1966C58.6098 76.1967 57.5998 75.1683 57.5998 73.8997ZM60.3542 80.9666V77.027C60.841 76.9467 61.2894 76.7523 61.6735 76.4698L64.4057 79.2525C63.3031 80.2272 61.8978 80.8544 60.3542 80.9666ZM65.1105 78.5334L62.3788 75.7514C62.6563 75.3605 62.8473 74.9036 62.9261 74.4078H66.787C66.6788 75.9791 66.065 77.41 65.1105 78.5334Z" fill="#31A05F"/>
<path d="M91.3439 59.2732C91.1687 59.2732 90.989 59.2989 90.8095 59.3491L88.7791 59.9186L86.6705 54.6874C86.0732 53.2055 84.3072 52 82.7344 52H63.001C61.428 52 59.6622 53.2055 59.065 54.6874L56.9592 59.9114L54.9541 59.3491C54.7746 59.2989 54.595 59.2732 54.4198 59.2732C53.46 59.2732 52.7636 60.0198 52.7636 61.0486V62.2677C52.7636 62.4983 52.7996 62.7204 52.865 62.9289C49.3385 65.2659 47 69.3126 47 73.9076C47 81.1269 52.7667 87 59.8552 87C65.4376 87 70.1977 83.3566 71.9696 78.2829H84.8813V80.8781C84.8813 82.0788 85.8406 83.0557 87.0196 83.0557H89.8121C90.9912 83.0557 91.9504 82.0788 91.9504 80.8781V70.4857C91.9504 68.9971 91.4989 66.6661 90.9438 65.2895L90.6036 64.4454H90.8617C92.0408 64.4454 93 63.4685 93 62.2677V61.0486C93 60.0198 92.3036 59.2732 91.3439 59.2732ZM61.682 55.3502C62.0392 54.4637 63.1014 53.7385 64.0423 53.7385H81.6931C82.6341 53.7385 83.6962 54.4637 84.0533 55.3502L87.243 63.2626C87.6002 64.1491 87.1229 64.8742 86.1819 64.8742H69.1468C66.8044 62.3764 63.5065 60.8155 59.8552 60.8155C59.7277 60.8155 59.6017 60.8216 59.475 60.8254L61.682 55.3502ZM59.8552 83.2065C54.8128 83.2065 50.7246 79.0431 50.7246 73.9074C50.7246 68.7723 54.8128 64.6091 59.8552 64.6091C64.8976 64.6091 68.9859 68.7723 68.9859 73.9074C68.9859 79.0431 64.8976 83.2065 59.8552 83.2065ZM87.8348 73.2708C87.8348 73.7499 87.4499 74.1419 86.9795 74.1419H80.9207C80.4503 74.1419 80.0654 73.7499 80.0654 73.2708V70.3093C80.0654 69.8302 80.4503 69.4382 80.9207 69.4382H86.9795C87.4499 69.4382 87.8348 69.8302 87.8348 70.3093V73.2708Z" fill="#31A05F"/>
</svg>
